<?xml version="1.0" encoding="utf-8"?>
<!-- Generator: Adobe Illustrator 21.0.2, SVG Export Plug-In . SVG Version: 6.00 Build 0)  -->
<svg version="1.1" id="Capa_1" xmlns="http://www.w3.org/2000/svg" xmlns:xlink="http://www.w3.org/1999/xlink" x="0px" y="0px"
	 viewBox="0 0 217.9 15.5" style="enable-background:new 0 0 217.9 15.5;" xml:space="preserve">
<style type="text/css">
	.st0{fill:#0A4831;}
</style>
<title>logo_PG</title>
<path class="st0" d="M12.5,3.3l-0.2,0.6c0,0.2-0.1,0.4-0.2,0.5c-0.2,0.1-0.3,0.2-0.5,0.2l-0.3,0.1l0.2,0.2c-0.1,0.2-0.2,0.4-0.3,0.6
	c-0.1,0-0.3,0-0.4,0.1c-0.1,0.1-0.2,0.1-0.3,0.2l0.2,0.1l-0.4,0.3L9.7,6.4L9.5,6.6L8.8,6.7C8.6,6.8,8.4,6.9,8.3,7L7.9,7.2H7.7
	L7.3,7.4L6.4,7.6L5.8,7.8H5.3L5,7.9H4.7L4.5,8H4.2C4,8,3.8,8.1,3.6,8.1L2.7,8.5L2.4,8.6v0.2L2.5,10l-0.1,0.2l0.1,1v0.2
	c-0.2,0-0.3,0.1-0.3,0.2l0,0l0.3,0.6l0.1,1.4v0.5c0,0.2-0.1,0.3-0.2,0.3L2,14.7L1.6,15H1.4l-0.5,0.3H0.8c-0.2,0-0.2-0.1-0.2-0.3
	c0,0,0-0.1,0-0.1l0.2-0.4l-0.1-0.6l0.2-1.7l-0.1-0.7L1,10.3V9.9l0.2-0.7V8.9H1V8.7V8.5l0.1-0.3V8V7.7L1,7.5l0-1.2V6V5.5L1,5.2
	L0.9,4.8l0,0V4V3.9L1,3.8V3.2H0.8c0-0.2-0.1-0.3-0.1-0.5c0-0.2,0-0.5,0.1-0.7l0,0c0,0,0-0.1,0-0.1c0,0-0.1,0-0.1,0L0.4,1.7L0.2,1.5
	H0V1.1l0.2-0.1L1,0.7l0.6-0.2l2.2,0.1l0.5-0.1c0.2-0.1,0.4-0.1,0.6-0.1h0.4l0.7,0.1h0.5h0.2H7h0.1l0.2,0.2h1l0.6,0.2l0.3-0.1
	l0.7,0.1l0.2,0.2c0.1,0.1,0.2,0.2,0.3,0.2l0.8,0l0.7,0.4l0.4,0.2c0,0,0,0.1-0.1,0.2c0,0.1,0.1,0.2,0.2,0.3v0.3L12.5,3.3z M10.9,3.5
	l-0.2-0.3l-0.1-0.3L9.8,2.1C9.8,2,9.7,1.9,9.6,1.9c-0.1,0-0.1-0.1-0.2-0.1L9.3,1.9C8.6,1.5,7.8,1.3,7,1.3H6L5.1,1.1L4.5,1.3L3.1,1.3
	c-0.2,0-0.3,0.1-0.5,0.2C2.5,1.6,2.4,1.8,2.5,2v0.8V3L2.3,3.1c0.1,0.1,0.2,0.1,0.2,0.2c0.1,0.1,0.1,0.2,0.1,0.2c0,0.1,0,0.1,0,0.2
	L2.4,4.3l0.1,0.4v0.6l0.1,1.3v0.2H2.5c-0.1,0-0.2,0.1-0.2,0.2c0,0,0,0,0,0.1c0,0.1,0,0.2,0.1,0.2h0.3h1h0.3l0.2,0.2l0.3-0.1l0.8-0.2
	l1.5-0.2l0.9-0.3l0.7-0.2c0.2,0,0.4-0.1,0.6-0.3l0.2-0.3l0.4-0.3V5.3l0.3-0.2L9.8,5l0.7-0.7l0.1-0.4L10.9,3.5z"/>
<path class="st0" d="M26.3,14.4c0,0,0,0.1,0,0.1l-0.4,0.4l-0.4,0.6h-0.4h-0.2v-0.2L24.8,15v-0.2v-0.2c-0.1-0.2-0.2-0.3-0.2-0.5h-0.2
	l-0.1-0.2L24,13.1l-0.1-0.3l-0.5-0.9c-0.1-0.1-0.1-0.3-0.1-0.4v-0.1c0,0,0-0.1,0-0.1c-0.1-0.1-0.2-0.2-0.3-0.3
	c-0.2-0.3-0.4-0.7-0.5-1.1l-0.4-0.2c-0.1,0.3-0.2,0.5-0.4,0.5l0,0L20.6,10h-0.4h-0.3l-1.5,0.2h-0.9l-0.5,0.1l-0.4-0.1l-0.3-0.1
	c-0.1,0.1-0.1,0.2-0.2,0.2c-0.1,0-0.2,0.1-0.2,0.1h-0.1l-1-0.1l-0.4,0.1H14c-0.2,0-0.3,0.3-0.5,0.7l-0.2,0.4h-0.1
	c-0.2,0.5-0.5,1.1-0.8,1.6v0.2l-0.2,0.2l-0.6,1.3c0,0.1-0.2,0.2-0.5,0.3v0.2h-0.4c-0.2,0-0.5-0.1-0.7-0.2l0.4-0.7l0.3-0.4l0.2-0.4
	l0.1-0.2l0.1-0.2V13c0.3,0,0.4-0.2,0.4-0.4v-0.3l0.3-0.4l0.5-1l0.3-0.4l0.3-0.7l0.4-0.7l0.4-0.7l0.4-0.4c0,0,0-0.1,0-0.1
	c0-0.1-0.1-0.1-0.1-0.2c0.1-0.1,0.2-0.1,0.3-0.2c0.1-0.1,0.1-0.2,0.2-0.2l-0.1-0.1l0.1-0.2l0.2-0.5c0.1-0.1,0.2-0.2,0.3-0.3V6.2
	l0.5-1.2l0.4-1c0.1-0.2,0.3-0.5,0.5-0.6L16.4,3l0.1-0.3c0-0.2,0.1-0.3,0.1-0.5c0-0.1,0.1-0.1,0.2-0.2C16.9,2.1,17,2,17.2,2l0.1-0.2
	l-0.1-0.3c0-0.1,0-0.1,0-0.2c0-0.1,0-0.2,0.1-0.2L18,0.6l0.1-0.4C18.2,0.1,18.4,0,18.7,0l0.1,0.4h0.1v0.1l0.1,0.3l0.3,0.4L19.8,2
	L20,2.6L20.3,3L20,3.1c0,0.1,0,0.2,0.1,0.2c0.3,0.2,0.4,0.3,0.4,0.4v0.2l0.2,0.3L21,4.7l0.1,0.3V5l-0.1,0.2v0.2l0.1,0.2l0.3,0.3
	l0.4,0.8L22.1,7v0.3c0.3,0.2,0.4,0.4,0.4,0.6c0,0,0,0.1,0,0.1l0.2,0.2L23.2,9l0.1,0.2l0.1,0.2l0.1,0.2c0.1,0.1,0.2,0.2,0.2,0.4
	c0,0.1,0,0.2,0,0.3c0.3,0.1,0.4,0.3,0.4,0.4c0,0.2,0,0,0,0v0.5c0,0,0,0.1,0,0.1l0.4,0.2l0.1,0.2l0.1,0.2c0,0.1,0.1,0.2,0.4,0.3v0.2
	l0.4,0.4l0.4,0.6l0.2,0.2c0.1,0.1,0.1,0.2,0.2,0.3C26.3,14.1,26.3,14.3,26.3,14.4z M21.9,8.8l-0.1-0.1V8.7V8.6h-0.2
	c-0.1-0.3-0.2-0.5-0.2-0.8V7.5L21,7.4l-0.5-1h-0.1l-0.7-1.3l0.1-0.2l-0.1-0.3l-0.5-0.3l-0.8-1.5c-0.1-0.2-0.3-0.4-0.5-0.5l-0.1,0.1
	l-0.1,0.4h-0.1c0,0.2-0.1,0.4-0.2,0.6c-0.1,0.1-0.2,0.2-0.3,0.3c-0.2,0.1-0.3,0.3-0.3,0.5v0.3l-0.6,1.1l-0.1,0.3L16,6.1l-0.1,0.1
	c0,0-0.1,0.1-0.1,0.1l-0.1,0.2c0,0.1-0.1,0.2-0.1,0.3c-0.1,0-0.2,0.1-0.2,0.1v0.2c0,0.3-0.1,0.6-0.2,0.8c-0.1,0.2-0.3,0.4-0.5,0.5
	l0.2,0.3c-0.1,0-0.1,0-0.2,0.1c-0.1,0.1-0.1,0.1-0.1,0.2l-0.1,0.3h0.2L15,9.4h0.3l0.2,0.1V9.4h0.2l1.4,0.1L18,9.4l0.4,0.1l0.1-0.1
	h0.2l0.6-0.1h0.3v0.1h0.1c0.1,0,0.1-0.1,0.2-0.2h0.3l0.9-0.1h0.4l0.2-0.1C21.7,9.1,21.8,9,21.9,8.8L21.9,8.8z"/>
<path class="st0" d="M40.2,13.8L40,14l-0.2,0.1l-0.2,0.2l0.1,0.2c-0.2,0.2-0.3,0.3-0.4,0.3h-0.4l-0.3,0.2l-0.2,0.1l0,0l-0.6-0.1
	l-1.5,0.1L34.8,15l-1.1,0.1c-0.2,0-0.4,0-0.5-0.1L33,14.8h-0.2v0.2c-0.2,0.1-0.4,0.1-0.5,0.1c-0.3,0-0.6,0-0.9-0.1v0.1H31h-0.2
	c-0.1,0-0.1-0.1-0.2-0.1h-0.2v0.1l-0.3,0.1l-1.3,0.1h-0.2c-0.2,0-0.3-0.1-0.3-0.2v-0.2l0.4-0.2v-0.1l0.2-0.1c0-0.2,0-0.4,0.1-0.6
	c0.1-0.1,0.2-0.2,0.3-0.3l-0.1-0.2v-1.1v-0.3l0.2-0.3l-0.2-0.2l0.2-0.4l0.1-0.3l0.1-0.3l-0.2-0.3l0-0.2l0-0.2V9.4l0-0.3l0.1-0.8V7.7
	l0.2-0.4L29.6,7l-0.3-0.1l-0.1-1.2c0.1,0,0.2-0.1,0.2-0.2L29.4,5h-0.2c-0.1-0.5-0.2-1.1-0.2-1.6c0-0.2,0-0.5,0.1-0.7l-0.1-0.2
	L29,1.9l-0.2-0.3h-0.1l-0.2-0.3l0.2-0.2L29,1l0.3-0.3L30,0.5l0.2-0.1l0.2-0.1l0.2,0.1h0.1v0.1l0.1,0.1v0.8v0.4c0,0.1,0,0.2,0,0.3
	c0,0.1-0.1,0.1-0.2,0.2l-0.1,0.2l0.1,0.1h0.2v0.1l-0.1,0.1l0.1,0.4l0,0l-0.1,0.7l0.1,0.6v0.2l-0.1,0.8h-0.2
	c-0.1,0.1-0.1,0.2-0.1,0.3c0,0.2,0.1,0.4,0.3,0.4v0.2v1.7c0,0.4,0,0.8-0.2,1.2l-0.1-0.1c-0.1,0.1-0.1,0.1-0.1,0.2v0.2l0.2,0.1l0,0.4
	v0.3l0,0v1.1v0.3c-0.1,0.1-0.2,0.2-0.2,0.2s0.1,0.1,0.2,0.2v0.6l-0.1,0.6c0,0.2,0.1,0.3,0.2,0.4c0.2,0.1,0.4,0.1,0.7,0.1
	c0.2,0,0.5,0,0.7-0.1l0.1,0.1h0.3l0.3,0.2h0.2c0.1,0,0.2-0.1,0.3-0.2l1.3,0.1h0.8l0.9-0.1h0.2v0.2c0.2,0.1,0.3,0.1,0.5,0.1
	c0.1,0,0.2,0,0.3-0.1c0-0.1,0-0.2,0.1-0.2c0.1-0.1,0.1-0.1,0.2-0.2h0.2c0.2,0,0.4-0.1,0.6-0.2c0.1,0.1,0.1,0.1,0.2,0.2
	c0.1,0,0.1,0,0.2,0c0.2-0.3,0.5-0.4,0.8-0.4L40.2,13.8z"/>
<path class="st0" d="M58.2,13.9c0,0.3-0.1,0.6-0.3,0.8c-0.2,0.2-0.3,0.3-0.5,0.3h-0.2L57,15.1c-0.1,0.1-0.2,0.2-0.4,0.2h-0.2V15
	l0.1-0.6V14l0.2-1.3l-0.1-0.6l-0.1-1.3l-0.1-0.4V9.3V8.6V8.2l-0.2-1.4l0.1-0.3l-0.2-0.1V6.2l-0.2-0.6V4.9l-0.1-0.3l-0.2,0.1
	l-0.1,0.1v0.3L55.2,6v0.2L55,6.4l-0.1,0.3l-0.2,0.2l-0.1,0.4L54.4,8v0.2c-0.2,0.1-0.4,0.3-0.5,0.5l-0.3,0.8l-1,1.6l-0.7,1.3
	l-0.2,0.3L51,13.3c-0.1,0-0.1,0.1-0.1,0.2l0,0c0,0.1,0,0.2,0.1,0.3v0.1c-0.1,0-0.2,0-0.3,0.1c-0.1,0.1-0.1,0.2-0.2,0.3
	c-0.1,0.2-0.1,0.4-0.2,0.5C50.2,15,50.1,15,50,15.1c-0.1,0.1-0.3,0.1-0.4,0.1c-0.1-0.1-0.2-0.3-0.3-0.4c0-0.1-0.1-0.2-0.1-0.3
	l-0.1-0.1c0-0.2-0.1-0.3-0.3-0.4l-0.1,0.1l-0.2-0.3l-0.3-0.7l-0.2-0.3l-0.2-0.6l-0.3-0.4c0.1-0.1,0.1-0.3,0.1-0.5
	c0-0.1,0-0.2-0.1-0.2l-0.3-0.3L46,8.2l-0.3-0.7l0,0l0.1-0.3l-0.2-0.4l-0.1-0.3l-0.2,0.1l-0.1-0.2c-0.2-0.3-0.3-0.5-0.4-0.8
	c-0.1-0.1-0.1-0.4-0.2-0.6c-0.2,0-0.3-0.1-0.3-0.2l-0.2,0.3h-0.3v0.1C43.9,5.3,44,5.5,44,5.7l-0.1,0.8c0,0.1,0,0.2,0,0.3
	c0,0.1,0,0.1,0,0.2l-0.2,0.2L44,7.7V8v0.8l-0.1,0.5l-0.1,2.3l-0.1,0.3c0.1,0.2,0.1,0.4,0.2,0.6v0.2c-0.1,0-0.3,0-0.4,0.1
	c-0.1,0.1-0.1,0.3-0.1,0.4l0.4,0.1v0.2v0.2c0,0.2,0,0.4-0.1,0.4l-0.8,0.5l-0.4,0.3h-0.2h-0.2V15v-0.2l0.2-0.5v-1.1l0.2-1.3v-0.7
	v-0.2v-0.3v-0.3c0.1-0.1,0.2-0.2,0.2-0.4l0.1-0.1c0-0.1,0-0.2-0.1-0.3l-0.1-0.3c0,0,0-0.1,0-0.1V9.4c0-0.1,0.1-0.3,0.2-0.4
	c-0.1-0.2-0.2-0.4-0.2-0.6V8.4l0.1-1.3l-0.1-1.2V5.7l0.3,0.1C43,5.7,43,5.6,43,5.6V5.5h-0.5V5h0.3V4.8c0-0.1-0.1-0.2-0.3-0.3
	l-0.1-0.6h0.1V3.7l-0.1-1.1V2.1l-0.2-0.4c0-0.1,0.1-0.3,0.4-0.4l0.2,0L43,1l0.2-0.1l0.5-0.4c0.1-0.1,0.2-0.1,0.3-0.1l0.2,0
	c0,0.1,0,0.2,0.1,0.3c0.1,0.1,0.2,0.1,0.2,0.2c0,0.1,0,0.2,0.1,0.2c0,0.1,0.1,0.2,0.2,0.3L45,1.9l-0.1,0.2l-0.1,0.4v0.1l0.3,0.2
	l0.3,0.8L45.2,4l0.1,0.1l0.1,0.2c0.2,0,0.4,0.2,0.5,0.4l0.3,0.8l0.4,1.1c-0.2,0.2-0.3,0.3-0.3,0.4l0.1,0.3h0.2c0.1,0,0.2,0,0.2,0.1
	c0.1,0.1,0.1,0.2,0.1,0.2L47,7.9C47,8,47.1,8,47.2,8h0.1l0.1,0.2c0.2,0.3,0.3,0.6,0.4,0.9l-0.1,0.3l-0.1,0.2l0.2,0.1h0.2l0.2,0.3
	l0.4,0.4l0.1,0.4l0.2,0.2l0.3,0.7l0.2,0.3l0.3,0.7l0.2,0.1l0.3-0.2l0.8-0.9l0.4-0.7l0.3-0.7l0.5-0.9l1-2.3l0.4-0.6L54,6.1l0.5-1.2
	l0.1-0.3h0.1l0.1-0.1V4.4l0.2-0.1V4.1L54.8,4C54.9,3.7,55,3.5,55,3.5l0.2-0.1l0.2-0.1c-0.1-0.2-0.2-0.3-0.3-0.5
	c0.1-0.1,0.2-0.2,0.2-0.4c0,0,0-0.1,0-0.1l0.2-0.2l0.3-0.5L56.5,1c0.1-0.1,0.3-0.3,0.5-0.3l0.3,0.1l-0.1,0.7l0.1,0.1h0.2
	c0.2,0,0.3,0.1,0.3,0.2v0.4l-0.1,0.3h-0.1v0.2l0.2,0.4l0,2.2v0.1c0,0.1,0,0.2-0.1,0.3l-0.3,0.4c0,0.1,0,0.2,0,0.3
	c0,0.1,0.1,0.1,0.2,0.2c0.1,0,0.2,0,0.3,0v0.4v1.8l0.2,0.8l0.1,1.3l0.1,0.9c0,0.2,0,0.3-0.1,0.4c0.1,0.1,0.1,0.2,0.2,0.3
	c0,0.2,0.1,0.4,0.1,0.6L58.2,13.9L58.2,13.9z"/>
<path class="st0" d="M64,0.8v0.3l-0.1,0.4l-0.2,0.4L63.8,3c0,0.3-0.1,0.5-0.2,0.7v0.2L63.8,4v0.3v0.9c0,0.1,0,0.2,0,0.4
	c0,0.1-0.1,0.2-0.2,0.3l0.2,0.2v0.3v0.3L63.5,7l0.1,0.3c0,0.1,0.1,0.2,0.1,0.3l-0.1,0.6v0.6l-0.2,0.5v0.1c0,0.1,0.1,0.2,0.2,0.3v0.4
	v0.2v0.5V11l-0.2,0.6l0.2,0.1l-0.1,0.2l0.1,0.6v1l0.1,0.4v0.3c-0.7,0.6-1.1,0.9-1.3,0.9h-0.1v0.1l-0.4,0.1L61.7,15
	c0.1-0.2,0.2-0.4,0.2-0.6v-0.2l0.3-0.9v-0.7l0.5-0.1v-0.1c0-0.1-0.1-0.2-0.1-0.3h-0.3h-0.1l-0.1,0.1v-0.4v-0.5l0.1-0.8v-0.4l0.2-0.3
	c-0.1-0.1-0.2-0.2-0.2-0.3c0-0.1,0-0.3,0-0.4c0-0.2,0.1-0.4,0.2-0.6l-0.2-0.2V8V7c0,0,0-0.1,0-0.1V6.7V6.4c0.1-0.1,0.1-0.2,0.1-0.3
	l-0.2-0.2l0.1-0.2l-0.1-0.8l0.1-0.4l0,0c0-0.1-0.1-0.3-0.2-0.4V3.9l-0.2-1l0.1-0.4l-0.1-0.3V1.9V1.3c0.1-0.1,0.2-0.2,0.3-0.2h0.6
	c0.1,0,0.2-0.1,0.3-0.4l0.4-0.1l0.3-0.1h0.2C63.9,0.6,63.9,0.7,64,0.8z"/>
<path class="st0" d="M81.1,1l-0.2,0.2l-0.3,0.5L79.7,2l-0.4,0.3c-0.1,0-0.2,0.1-0.3,0.1l0,0l-0.6-0.1H77l-1-0.1l-1,0.1l-0.4-0.1
	h-0.2l-0.1,0.5l0.1,0.3v0.3v0.1l-0.1,0.5v0.4v0.3l0.1,0.2c-0.1,0-0.2,0-0.3,0.1c-0.1,0.1-0.1,0.2-0.1,0.3c0.2,0,0.4,0.1,0.4,0.2v0.8
	v0.5c0,0.3-0.2,0.5-0.4,0.7L74,7.5c0,0,0.1,0.1,0.1,0.1h0.2l0.1,0.1c-0.1,0-0.1,0.1-0.2,0.2c0,0.1-0.1,0.2-0.1,0.3l0.3,0.3v1
	c0,0.1-0.1,0.2-0.2,0.3l0.1,0.3v0.3l0.1,0.4V11v0.3v0.4C74.1,11.8,74,12,74,12.2c0,0.2,0.1,0.4,0.4,0.5l0.2,1.8l-0.2,0.1l-0.2,0.1
	l-0.6,0.5h-0.2h-0.2l-0.1,0.1c-0.1,0-0.1-0.1-0.2-0.1h-0.1l-0.1-0.3c0,0,0-0.1,0-0.1c0,0,0,0,0-0.1l0.1-0.5l-0.1-0.6l0.1-0.8
	l0.1-1.1l0.1-0.9v-0.2l0.2-0.3l-0.3-1L73,8.6l-0.1-0.9V7.1l0,0c0-0.3,0.1-0.5,0.2-0.8L73,6.1c-0.1-0.3-0.2-0.6-0.3-0.9l0,0V5
	l-0.1-0.6V4.1l-0.1-0.8V3l0.4-0.7c0.2-0.1,0.2-0.2,0.2-0.2c0-0.1,0-0.1,0-0.2l-0.6-0.1h-0.2H72l-0.5-0.2l-1,0.1l-1.5-0.2l-1.6,0.1
	h-0.3C67.1,1.9,67,2,66.8,2h-0.1h-0.3l-0.3,0c0-0.2,0-0.3,0.1-0.5c0.1-0.1,0.1-0.2,0.2-0.3l0.8-0.6c0.3-0.1,0.6-0.2,0.9-0.2h0.3
	c0.1,0.2,0.2,0.3,0.3,0.3c0.2,0,0.4-0.1,0.5-0.2h0.5l0.9,0.3h0.8L72.1,1L73.4,1l0.5,0.3h0.2V1.2h0.3c0.5,0,0.7,0.1,0.8,0.1
	c0.1,0,0.2,0.1,0.3,0.2L76,1.6l0.2-0.1h0.3L77,1.3h0.8l0.5-0.1c0.2,0.1,0.4,0.1,0.6,0.1c0.7,0,1.4-0.2,2-0.5L81,0.8L81.1,1z"/>
<path class="st0" d="M99,7.8c0,0,0,0.1,0,0.1l-0.2,0.6v0.6l-0.2,0.3c0,0-0.1,0-0.2,0c0,0-0.1,0-0.1,0.1c0,0.1-0.1,0.2-0.1,0.2
	c0,0,0,0,0,0.1c0.1,0.1,0.2,0.3,0.2,0.5c0,0,0,0.1,0,0.1c-0.1,0.1-0.2,0.3-0.3,0.5L98,11l0.1,0.1L98,11.2l0.2,0.1v0.1L98,11.6
	L97.7,12l-0.2,0.2c-0.1-0.1-0.2-0.1-0.2-0.1c-0.1,0-0.2,0.1-0.2,0.2c0,0.1,0.1,0.2,0.2,0.3c-0.3,0.4-0.7,0.8-1.1,1
	c-0.5,0.3-1.1,0.6-1.6,0.9c-0.4,0.2-0.9,0.4-1.3,0.5H93c-0.3,0.1-0.7,0.1-1,0.1l0,0h-0.4h-0.3l-0.4-0.2l-0.3,0.1
	c-0.1,0.1-0.2,0.1-0.3,0.1h-0.1c0-0.1-0.1-0.2-0.2-0.3c-0.1-0.1-0.2-0.1-0.3-0.2c-0.3,0.2-0.6,0.3-1,0.3c-0.1,0-0.2,0-0.2-0.1
	c-0.1,0-0.2,0-0.3,0l-0.8-0.2h-0.6l-0.2-0.2h-0.3H86l-0.4-0.1L84.2,14l-0.4-0.3l-0.5-0.2L82.9,13c-0.1-0.1-0.3-0.1-0.5-0.1l-0.3-0.3
	c0-0.1,0.1-0.2,0.1-0.3c0-0.2-0.3-0.4-0.8-0.5v-0.1h-0.1l-0.1-0.2l-0.3-0.1v-0.2l-0.2-0.6v-0.2l-0.2-0.9l0.1-0.9l0.1-0.3l0.1-0.6
	l0.5-1.4l0.1-0.2c0.1-0.4,0.4-0.6,0.7-0.8V5l0.6-0.6h0.2c0.1,0,0.1,0,0.2-0.1L83,3.8l0.2-0.3c0.1-0.1,0.2-0.3,0.3-0.3L83.8,3
	l0.3-0.3l0.7-0.4c0.2-0.2,0.5-0.3,0.8-0.4l0.2,0.1l0.3-0.3h0.2l2-0.8c0.1-0.1,0.3-0.1,0.4-0.1c0.2,0,0.4,0.1,0.6,0.1l0.2-0.1
	l0.1-0.2h0.3h0.2H90l0.5-0.1h0.8l0.5-0.1h0.3h0.3l0.4,0.1l0.6,0.1L94,0.8l1.3,0.5l0.1,0.1l0.2,0.2v0.1l0,0c-0.1,0-0.1,0.1-0.1,0.2
	c0,0.1,0.1,0.1,0.2,0.2V2c0.2,0,0.3,0.1,0.4,0.2c0,0.1,0,0.2,0,0.3c0.1,0.1,0.1,0.2,0.2,0.2c0.1-0.1,0.2-0.1,0.3-0.1
	c0.2,0,0.4,0.1,0.5,0.2l0.2,0.2l0.4,0.3l0.1,0.2l0.3,0.3l0.1,0.3C98,4.5,98,4.6,97.9,4.7c0,0,0,0.1,0,0.1l0.7,0.7v0.2l0.2,0.5
	c0,0,0,0.1,0,0.3l-0.2,0.1v0.1h0.2V7L99,7.8z M97.3,6c0-0.3-0.2-0.5-0.6-0.6l-0.1-0.6L96.1,4L96,3.7l-0.2,0l-0.2-0.2l-0.5-0.6
	l-0.4-0.3l-0.4-0.3l-0.2-0.1L94,2h-0.2c-0.2,0-0.3,0-0.5-0.1l-1-0.6l-0.9-0.1L90.7,1h-0.7h-0.5L89,1.2l-0.5,0.1l-0.5,0.3l-0.2-0.1
	l0,0l-0.3,0.1l-1.2,0.7H86c-0.1,0.2-0.3,0.4-0.5,0.5l-0.3,0.1l-0.9,0.9l-0.2,0.1c-0.3,0.3-0.6,0.6-0.8,1.1l-0.1,0.2H83l-0.1,0.3
	L82.7,6l-0.1,0.2l-0.1,0.2l-0.4-0.1c0,0.1-0.1,0.2-0.1,0.2c-0.1,0.1-0.1,0.1-0.2,0.1v0.1c0.3,0.2,0.4,0.3,0.4,0.5V8l0.2,1.1v0.3
	l0.3,0.6c-0.2,0.1-0.3,0.2-0.3,0.3c0,0.1,0,0.1,0.1,0.2c0.1,0.1,0.2,0.1,0.2,0.1h0.1H83l0.4,0.5c-0.1,0.1-0.1,0.2-0.1,0.2l0.1,0.2
	h0.1l0.4,0.4l0.6,0.3l0.8,0.7l0.6,0.1l0.3,0.3l1.1,0.4l0.9,0.4h0.3l2,0.3h0.3h0.2l0.4-0.1l1.1,0.1l0.5-0.1l0.8-0.3l0.3-0.1l0.2,0.1
	c0.2-0.1,0.3-0.1,0.4-0.2l0.1-0.3l1.1-0.9l0.4-0.8l0.2-0.3h0.1l0.1-0.3L96.7,11l0.1-0.2V9.9l0.2-0.4l0.1-0.3l0.2-0.1l0.1-0.7
	C97.1,8.2,97,8,97,7.8l0,0v-1V6.5C97.2,6.3,97.3,6.2,97.3,6z"/>
<path class="st0" d="M120.8,14.1c0,0.2,0,0.4-0.2,0.6h-0.2h-0.2l-0.3,0.2l-0.7-0.1l-0.7,0.3h-1.1l-1.4,0.2H116h-0.5
	c-0.3,0.2-0.6,0.3-1,0.3h-0.2l-0.7-0.1l-1.6-0.1l-0.4-0.1l-0.6-0.1l-0.3-0.1l-0.1-0.3c-0.1,0-0.2,0-0.3-0.1c-0.1,0-0.2,0.1-0.3,0.1
	c-0.1,0-0.3-0.1-0.4-0.2l-0.2-0.1c0-0.2-0.1-0.3-0.2-0.5c-0.1,0-0.2,0.1-0.3,0.1c0,0-0.1,0-0.1,0l-0.1-0.1l-0.5-0.5l-0.3-0.6
	l-0.3-0.3l-0.3-0.4l-0.2-0.4c0.1-0.2,0.2-0.4,0.2-0.6l-0.1-0.2l-0.4-0.1l-0.2-0.4c-0.1-0.1-0.1-0.2-0.1-0.3c0-0.1,0-0.1,0-0.2l0,0
	l-0.2-0.9c0-0.1,0-0.2,0-0.3c0-0.2,0-0.4,0.1-0.6l-0.1-0.2l0.1-0.7c0-0.2,0-0.4,0.1-0.6c0-0.2,0.1-0.4,0.2-0.6c0,0,0-0.1,0-0.1
	c0-0.1,0.1-0.2,0.1-0.3l0.1-0.2l0.4-0.2V5c0-0.1,0-0.1,0-0.2l0.6-0.7l0.3-0.5l0.3-0.2l0.3-0.4l0.5-0.4l0.2-0.3l1-0.4l0.3-0.3
	l0.4-0.1l0.1-0.1l0.2-0.1l0.2,0c0.3-0.1,0.6-0.2,0.9-0.3h1l0.5-0.2l0.9-0.1l0.6-0.1l1,0.1h0.3c0.2,0.2,0.3,0.3,0.3,0.3
	c0.1,0,0.2-0.1,0.3-0.2h0.1V0.8h0.2l0.6,0.3h0.4c0.2,0,0.3,0.1,0.3,0.2s-0.1,0.2-0.3,0.3c-0.1,0.1-0.3,0.2-0.5,0.3l-0.2-0.1
	c-0.1,0.3-0.3,0.4-0.4,0.4h0L117.4,2l-0.5-0.1l-0.3-0.2l-0.5-0.1l-0.5-0.2l-1.3,0.1h-0.7c-0.3,0-0.6,0.1-0.9,0.2L112,2.1l-0.7,0.3
	L110.4,3L110,3.2l-0.2,0.5c-0.4,0.1-0.5,0.2-0.5,0.4c0,0.1,0,0.2,0.1,0.3l-0.2,0.3c-0.1,0.1-0.2,0.3-0.3,0.3l0,0.4l-0.1,0.3
	l-0.3,1.1L108.2,7l-0.1,0.4v0.2v0.2l-0.1,0.2H108v0.2c-0.2,0.1-0.3,0.2-0.3,0.3c0,0.1,0.1,0.2,0.2,0.3l0.3,0.1v0.3
	c0,0.1,0,0.2,0.1,0.3c-0.1,0.1-0.2,0.2-0.2,0.3c0,0,0,0.1,0.1,0.1l0.3-0.1l0.1,0.2l0.2,0.7l0.2,0.4l-0.1,0.4l0.1,0.2h0.1
	c0.1,0,0.2,0,0.3,0.1c0.1,0.1,0.2,0.3,0.2,0.4l0.1,0.2l0.1,0.1l-0.3,0.1l0.2,0.1l0.4-0.1l0.3,0.2l0.2,0.1l0.2,0.2l0.4,0.1l0.7,0.5
	l0.4,0.1l-0.1,0.2c0.2,0,0.3,0,0.5,0.1l0.3,0.1h0.9l0.2,0.1l0.2-0.1l0.8-0.1l0.4-0.1h0.2c0.1,0,0.2,0,0.3,0.1l0.2-0.1
	c0.2-0.1,0.3-0.1,0.5-0.1l0,0h0.3l0.4-0.1v-0.1l0.2-0.1c0.1,0,0.2-0.1,0.3-0.1c0.1-0.1,0.1-0.1,0.2-0.2v0.1c0.3-0.1,0.4-0.2,0.4-0.3
	l-0.1-0.3v-0.8l-0.1-1.2l0.2-0.4v-0.1c0-0.2-0.1-0.3-0.2-0.4v-0.2V9.7V9.4h-0.2l-0.7-0.2h-0.6h-0.2h-0.5l-0.2-0.1l0.1-0.3
	c0.1,0,0.1,0,0.2-0.1c0.1-0.1,0.1-0.2,0.2-0.2l0.2-0.2c0.2,0.1,0.4,0.1,0.6,0.1h0.2l2.5-0.1h0.3c0.1,0.2,0.2,0.4,0.2,0.6
	c0,0.1-0.1,0.2-0.2,0.3v0.2h0.1v0.4v0.2c0,0.1,0,0.2,0,0.2c0,0.1-0.1,0.1-0.2,0.2l0.1,0.5c0.1,0.1,0.2,0.3,0.2,0.5
	c0,0.2,0,0.4-0.1,0.6c-0.1,0-0.2,0-0.3,0.1c-0.1,0.1-0.1,0.2-0.1,0.4l0.6,0.5v0.7L120.8,14.1z"/>
<path class="st0" d="M138.5,14.4c0,0,0,0.1,0,0.1l-0.4,0.4l-0.4,0.6h-0.4h-0.2v-0.2l-0.2-0.2v-0.2v-0.2c-0.1-0.2-0.2-0.3-0.2-0.5
	h-0.2l-0.1-0.2l-0.4-0.7l-0.1-0.4l-0.6-0.9c-0.1-0.1-0.1-0.3-0.1-0.4v-0.1c0,0,0-0.1,0-0.1c-0.1-0.1-0.2-0.2-0.3-0.3
	c-0.2-0.3-0.4-0.7-0.5-1.1l-0.4-0.2c-0.1,0.3-0.2,0.5-0.4,0.5l0,0l-1.1-0.2h-0.4H132l-1.5,0.2h-0.9l-0.5,0.1l-0.4-0.1l-0.3-0.1
	c-0.1,0.1-0.1,0.2-0.2,0.2c-0.1,0-0.2,0.1-0.2,0.1h-0.1l-0.9-0.1l-0.4,0.1h-0.5c-0.2,0-0.3,0.3-0.5,0.7l-0.2,0.4h-0.1
	c-0.2,0.5-0.5,1.1-0.8,1.6v0.2l-0.2,0.2l-0.6,1.3c0,0.1-0.2,0.2-0.5,0.3v0.2h-0.3c-0.2,0-0.5-0.1-0.7-0.2l0.4-0.7L123,14l0.2-0.4
	l0.2-0.2l0.2-0.2V13c0.3,0,0.4-0.2,0.4-0.4v-0.3l0.3-0.4l0.5-1l0.3-0.4l0.3-0.7l0.4-0.7l0.4-0.7l0.4-0.4c0,0,0-0.1,0-0.1
	c0-0.1-0.1-0.1-0.1-0.2c0.1-0.1,0.2-0.1,0.3-0.2c0.1-0.1,0.1-0.2,0.2-0.2l-0.1-0.2l0.1-0.2l0.2-0.5c0.1-0.1,0.2-0.1,0.3-0.2V6.2
	l0.5-1.2l0.4-1c0.1-0.3,0.3-0.5,0.5-0.7L128.6,3l0.1-0.3c0-0.1,0.1-0.3,0.1-0.4c0-0.1,0.1-0.1,0.2-0.2c0.1,0,0.2-0.1,0.4-0.1
	l0.1-0.2l-0.1-0.3c0-0.1,0-0.1,0-0.2c0-0.1,0-0.2,0.1-0.2l0.7-0.5l0.1-0.3c0.1-0.2,0.4-0.3,0.6-0.3l0.1,0.4h0.1v0.1l0.1,0.3l0.3,0.4
	L132,2l0.2,0.6l0.3,0.5l-0.3,0.1c0,0.1,0,0.2,0.1,0.2c0.3,0.2,0.4,0.3,0.4,0.4V4l0.1,0.3l0.3,0.5l0.1,0.3v0.1l-0.1,0.2v0.2l0.1,0.2
	l0.3,0.3l0.4,0.8l0.2,0.3v0.2c0.3,0.2,0.4,0.4,0.4,0.6c0,0,0,0.1,0,0.1l0.2,0.2l0.5,0.8l0.1,0.2l0.1,0.2l0.1,0.2
	c0.1,0.1,0.2,0.2,0.2,0.4c0,0.1,0,0.2,0,0.3c0.3,0.1,0.4,0.3,0.4,0.4c0,0.2,0,0,0,0v0.5c0,0,0,0.1,0,0.1l0.4,0.2l0.1,0.2l0.1,0.2
	c0,0.1,0.1,0.2,0.4,0.3v0.2l0.4,0.4l0.4,0.6l0.2,0.2c0.1,0.1,0.1,0.2,0.2,0.3C138.4,14.1,138.5,14.3,138.5,14.4z M134.1,8.8L134,8.8
	V8.7V8.6h-0.2c-0.1-0.3-0.2-0.5-0.2-0.8V7.5l-0.4-0.1l-0.5-1h-0.1l-0.7-1.3l0.1-0.2l-0.1-0.3l-0.5-0.3l-0.8-1.5
	c-0.1-0.2-0.3-0.4-0.5-0.5l-0.1,0.1l-0.1,0.4h-0.1c0,0.2-0.1,0.4-0.2,0.6c-0.1,0.1-0.2,0.2-0.3,0.3C129.1,3.9,129,4,129,4.2v0.3
	l-0.5,1.1c0,0.1-0.1,0.2-0.1,0.3l-0.1,0.2l-0.1,0.1c0,0-0.1,0.1-0.1,0.1L128,6.5c0,0.1-0.1,0.2-0.1,0.3c-0.1,0-0.2,0.1-0.2,0.1v0.2
	c0,0.3-0.1,0.6-0.2,0.8c-0.1,0.2-0.3,0.4-0.5,0.5l0.2,0.3c-0.1,0-0.1,0-0.2,0.1c-0.1,0.1-0.1,0.1-0.1,0.2l-0.1,0.3h0.2l0.4,0.1h0.3
	l0.2,0.1V9.4h0.2l1.4,0.1l0.9-0.1l0.4,0.1l0.1-0.1h0.2l0.6-0.1h0.3v0.1h0.1c0.1,0,0.1-0.1,0.2-0.2h0.3l0.9-0.1h0.4l0.2-0.1
	C134,9.1,134,9,134.1,8.8z"/>
<path class="st0" d="M154.2,14.6l-0.2,0.2l-0.3,0.2l-0.4,0.1l-0.8,0.3c-0.2,0.1-0.5,0.1-0.7,0.1h-0.4c-0.1-0.2-0.3-0.4-0.4-0.5
	l-0.6-0.3l-0.3-0.2l-0.1-0.2l-0.3-0.4l-0.1-0.6l-0.4-0.1l-0.4-0.5l-0.4-0.2l-0.2-0.3l-0.2-0.1l-0.1-0.2l-0.4-0.3l-0.2-0.2l-0.3-0.2
	l-0.4-0.4l-0.2-0.2c0-0.1,0-0.2,0.1-0.2c0-0.2-0.1-0.3-0.2-0.3l-0.5-0.1l-0.1-0.2l-0.6-0.5l-0.3-0.5l-0.4-0.2l-0.3-0.3L143.8,8
	l-0.7-0.5l-0.2-0.1l-0.1,0.3L142.7,8v0.5c0.1,0,0.1,0.1,0.1,0.2c0,0.1,0,0.1,0,0.2l-0.1,0.3v0.6v0.5v0.3l-0.1,0.3l0.1,0.3v0.2
	l-0.1,0.6v0.4l0.2,1.7V14c0,0.1,0,0.2-0.1,0.3l-0.2,0.2l-0.2,0.2h-0.4c-0.1,0-0.2,0.1-0.3,0.1l-0.6,0.5c-0.1,0-0.1,0-0.2,0
	c-0.1,0-0.2,0-0.2-0.1c0.1-0.2,0.2-0.4,0.3-0.6c0.1-0.2,0.1-0.4,0.1-0.6v-0.7l0.1-0.4l-0.1-0.8l0.1-0.2h0.2c0.1,0,0.1,0,0.2-0.1
	c0-0.1,0.1-0.2,0.1-0.4l-0.1-0.1c-0.1-0.1-0.2-0.2-0.2-0.4l0.1-0.4l-0.1-0.1V10V9.5l0.1-0.8l-0.1-1l0.1-0.5l-0.1-0.3
	c0-0.1,0.1-0.2,0.4-0.3V6.3c-0.1-0.1-0.2-0.2-0.3-0.2V5.6V4.8l0.1-0.4c-0.1-0.1-0.1-0.3-0.2-0.4c0-0.2,0-0.4,0-0.5V2.9l-0.1-0.1
	l0.1-0.8c0-0.2-0.1-0.4-0.2-0.6l-0.4-0.2V0.9l0.2-0.1l0-0.1c0.4-0.2,0.9-0.3,1.4-0.3h0.8h0.3c0.1,0.1,0.3,0.2,0.3,0.2l0,0l1.1-0.2
	l0.2,0.1l0,0l0,0h0.3h0.8h1.5l1.1,0.2h0.7l0.6,0.3l0.7,0.2c0.2,0.1,0.4,0.2,0.6,0.4c0.1,0.2,0.2,0.5,0.2,0.7c0,0.3-0.1,0.6-0.2,0.9
	l-0.2-0.1c0,0.1,0.1,0.3,0.2,0.4L151,3.9l-0.2,0.2l-0.1,0.2c-0.1,0-0.2,0-0.3,0c0,0,0,0.1,0,0.2l0.1,0.2l-0.1,0.2L150,4.9l-0.5,0.6
	l-0.4,0.1l-0.4,0.2h-0.2c0,0.2-0.2,0.3-0.3,0.4L148,6.4l-0.3,0.1h-0.3l-0.5,0.2h-0.1h-0.1l-0.3,0.2c0,0-0.1-0.1-0.2-0.1
	c0,0-0.1,0-0.1,0c0,0,0,0.1,0,0.1c0,0.1,0.1,0.1,0.2,0.2l-0.1,0.2c-0.1,0.1-0.2,0.2-0.2,0.3v0.1h0.2c0.1-0.1,0.2-0.1,0.3-0.2
	l0.2,0.2l-0.1,0.1c0,0.2,0.1,0.3,0.2,0.3h0.2l0.2,0.3l0.6,0.7l0.4,0.4l0.5,0.6l-0.1,0.3l0.5,0.2c0,0.1,0.1,0.2,0.1,0.2l0.3,0.2
	l0.5,0.5l0.3,0.4l0.2,0.2v0.1c0,0.1,0,0.2,0.1,0.3l0.4,0.1l0.2,0.1l0.4,0.4l1.1,0.7l0.2,0.2h0.1l0,0l0.7-0.1l0,0
	C154,14.3,154.1,14.4,154.2,14.6z M149.5,2.8c0-0.3-0.1-0.5-0.3-0.7l-0.4-0.3l-0.4-0.3h-0.4l-0.5-0.2h-0.1h-0.2l-0.1-0.3h-0.3
	l-0.1,0.3l-1.5-0.1l-0.1,0.1h-0.2l-1.5,0.2h-0.2L143,1.7c-0.1,0-0.3,0.1-0.3,0.2c-0.1,0.2-0.1,0.5-0.1,0.8v0.7v0.5v0.3
	c-0.2,0.2-0.3,0.3-0.3,0.4s0.1,0.2,0.4,0.3l0.1,0.2v0.3v0.3l-0.1,0.5c0,0.2,0.2,0.3,0.5,0.4v0.1h1l0.1,0.1h0.2h0.4l0.7-0.3l0.2,0.1
	l0.2-0.1l1-0.3l0.4-0.2l0.7-0.3l0.5-0.9l0.6-0.6V3.9l0.2-0.6L149.5,2.8z"/>
<path class="st0" d="M172,6.5L171.9,7v0.5c0,0.2-0.1,0.4-0.2,0.6l-0.2,0.2L171,8.5c-0.1,0.1-0.1,0.2-0.1,0.3l0,0h0.1L171,8.6
	l0.2,0.2l-0.1,0.1L171,9.2l-0.2,0.3l-0.2,0.4l-0.8,0.5l-0.4,0.7l-0.4,0.3l-0.7,0.8c-0.1,0.1-0.3,0.2-0.5,0.3l-0.8,0.3l-0.2,0.1
	c0,0.1,0,0.2-0.1,0.3l-0.2,0.1l-1.3,0.6l-0.8,0.5c-0.2,0.1-0.5,0.2-0.7,0.2c-0.1,0-0.2,0-0.3-0.1c-0.3,0.1-0.5,0.2-0.8,0.3l-0.6,0.2
	l-0.4,0.1l-0.9,0.1h-0.2l-0.6-0.2c-0.3,0.1-0.5,0.2-0.8,0.3l-0.1-0.1c-0.2,0-0.3-0.1-0.5-0.2H158v0.3c-0.2,0.1-0.5,0.2-0.8,0.2
	c-0.1,0-0.3,0-0.4,0c-0.3-0.1-0.7-0.2-1-0.2c-0.2,0-0.2,0-0.2-0.1v-0.1l0.2-0.2l0.3-0.1c0.1,0,0.3-0.1,0.4-0.1h0.1l0.2-0.2
	c0.1-0.1,0.2-0.2,0.2-0.3v-0.3l0.1-0.5V13v-0.1l0.1-0.1c-0.1-0.1-0.2-0.3-0.2-0.4l0.1-0.6v-0.3l0.2-0.2c-0.1-0.1-0.1-0.2-0.1-0.3
	v-0.3l-0.1-0.3V9.7V9l0.2-0.4c0-0.1,0-0.2,0-0.2c0-0.2-0.1-0.3-0.2-0.4V7.6V7.4c0-0.1,0.1-0.2,0.2-0.3V6.5h-0.3l0-0.3V5.7l-0.1-0.8
	l0.1-0.2l-0.1-0.3V3.3l-0.3-0.3l0.2-0.5V2.3l-0.1-0.6V1.3c-0.2,0-0.3-0.1-0.4-0.1L156,1.1V0.8l0.4-0.2h0.8l0.5-0.2
	c0.2-0.1,0.4-0.1,0.6-0.1h0.7l0.4,0.1l0.3-0.1l0.2,0.1h0.4h0.4h0.4l0,0l0.4-0.1l0.7,0.2h0.9l0.3,0.1l1.2,0.1l0.7,0.2l0.9,0.2
	l0.6,0.2l0.2,0.1v0.2L167,2l-0.1,0.1l0,0l-0.1,0.1l0,0.1l0.4-0.1l0.3-0.1l0.3,0.1l0.4,0.1l0.2,0.2v0.2h0.1h0.4
	c0.1,0,0.3,0.1,0.5,0.4h0.2c0.3,0.1,0.6,0.2,0.8,0.4c0.4,0.3,0.7,0.6,1,1l-0.2,0.2v0.2l0.1,0.2l0.2,0.2c0.1,0.1,0.2,0.3,0.2,0.5
	c-0.1,0.1-0.2,0.1-0.2,0.2c0,0,0,0.1,0,0.1l0.3,0.5C171.9,6.4,172,6.5,172,6.5z M170,6.3c-0.1,0-0.2-0.1-0.3-0.2
	c0-0.1-0.1-0.2-0.1-0.3h-0.1V5.7c0-0.1-0.1-0.2-0.1-0.3L169.2,5V4.9L169,4.7l-0.5-0.4c-0.1,0-0.1-0.1-0.2-0.1
	c-0.1-0.1-0.1-0.1-0.2-0.2l-0.2-0.3h-0.2c-0.1,0-0.3,0-0.4,0l-1-0.6l-0.4-0.1l-0.3-0.1l-0.2-0.1V2.5l-0.5-0.1
	c-0.1,0-0.2,0.1-0.3,0.1c-0.2-0.1-0.4-0.2-0.6-0.2l-0.3-0.1c-0.1,0-0.1,0-0.1-0.1l-0.1-0.1L163.3,2c-0.1,0.1-0.3,0.1-0.5,0.1
	c-0.2,0-0.3,0-0.4-0.1l-0.3-0.2l-0.7-0.1l-1.5-0.2l-0.8,0.1L159,1.5l-0.1,0.1l-0.1,0.2l-0.2-0.1V2c0,0.2,0,0.5-0.1,0.7l0.1,0.2
	c0.1,0.2,0.1,0.4,0.1,0.6v0.2l-0.1-0.1h-0.1c0,0.2,0.1,0.5,0.2,0.7v0.3h-0.1c0,0.1-0.1,0.1-0.2,0.1h-0.1v0.2l0.1,0.2
	c0.1,0,0.2,0.1,0.3,0.2c0.1,0.1,0.1,0.1,0.1,0.2c-0.2,0.1-0.2,0.1-0.2,0.2c0,0,0,0.1,0,0.1l0.2,0.5l-0.1,1.9l0.1,0.3l-0.1,0.6
	l0.1,0.1v0.4v0.6c0,0.1,0,0.2-0.1,0.3c-0.1,0.1-0.2,0.2-0.3,0.2v0.3l0.4,0.2v0.3v1.3l0.1,0.3c0,0.1,0.1,0.2,0.1,0.4
	c0,0.1,0.1,0.2,0.1,0.2c0,0.1,0,0.2-0.1,0.2h-0.2c-0.1,0-0.3,0.1-0.4,0.3c0.3,0.1,0.7,0.1,1.1,0.1h1.4h0.5l1.6-0.5h0.2l1.2-0.5
	l0.8-0.3l0.3-0.1l0.2-0.2l0.8-0.3L167,12l0.2-0.1l0.1-0.1l0.1-0.4l0.4-0.2l0.2-0.4l0.5-0.5l0.1-0.3c0.1,0,0.3,0,0.4,0
	c0.1,0,0.1-0.1,0.1-0.2c0-0.1-0.1-0.2-0.3-0.2c0.2-0.2,0.4-0.5,0.5-0.8c0.2-0.4,0.2-0.9,0.3-1.3C169.9,7,169.9,6.6,170,6.3L170,6.3z
	"/>
<path class="st0" d="M188.6,13.7l-0.1,0.5h-0.2c-0.1,0-0.1,0-0.2,0.1l-0.2,0.5l-0.3,0.2l-0.1,0.1h-0.4l-0.5,0.2l0,0l-0.5-0.2h-0.1
	h-1.2h-0.3l-0.1-0.2c-0.4,0.1-0.7,0.1-0.7,0.1h-0.4H183l-0.1-0.3h-0.1h-0.1l-0.4,0.2h-2.1l-0.3,0.1c-0.2-0.1-0.3-0.2-0.6-0.2h-0.1
	l-0.6,0.1l-0.6-0.1l-1.9,0.1c-0.3-0.1-0.5-0.2-0.8-0.3l0.1-0.2l0.3-0.6v-0.6l0.1-0.5v-0.8l0.1-0.3V9.1V8.5V8.2l0-0.2h0.4
	c-0.1-0.1-0.1-0.3-0.2-0.4c-0.1-0.1-0.2-0.2-0.3-0.3l-0.1-0.2l0.1-0.8l-0.1-1.4l0.1-0.5V4.4l-0.2-0.1L175.5,4V3.3l-0.1-0.2V3V2.7
	l0.1-0.1l0.6,0.2l-0.2-0.1c-0.1-0.1-0.2-0.1-0.2-0.2c0-0.1,0-0.1,0-0.2l-0.2-0.1l-0.2,0.1c0-0.2,0-0.5-0.1-0.7
	c0-0.1-0.1-0.2-0.1-0.2l-0.4-0.2l0.1-0.2c0.1-0.1,0.2-0.2,0.4-0.2l0.2-0.1c0.3-0.1,0.5-0.2,0.8-0.3l0,0l0,0l1.6,0.3l0.7,0.1l0.4,0.1
	c0.2-0.1,0.4-0.1,0.5-0.2c0,0,0.1,0,0.1,0l1.6,0.2l1.4-0.1l0.6,0.2l0.3-0.1V0.8c0.4,0,0.7-0.1,1.1-0.2c0.2-0.1,0.4-0.1,0.6-0.2h0.2
	c0,0.1-0.1,0.2-0.1,0.3c-0.1,0.1-0.2,0.2-0.4,0.2c0,0.1,0,0.2-0.1,0.3c-0.1,0.1-0.2,0.2-0.3,0.2c-0.3,0.1-0.6,0.2-0.9,0.3h-0.1h-0.6
	l-0.5,0.1l-1-0.1h-0.2c-0.2-0.1-0.4-0.2-0.6-0.2c-0.2,0.2-0.5,0.3-0.8,0.3h-0.3l-0.1-0.2l-0.2,0.1l-0.3,0.1l-1.5-0.1L177.1,2
	l0.1,0.1v0.1v0.6l-0.1,0.8v0.3v0.2l0.2,0.1l1.5,0.1c0.2,0,0.3,0.1,0.4,0.2l0.3-0.1c0.1-0.1,0.3-0.1,0.4-0.1l0,0l1.1,0.1h0.7h0.6
	c0.1,0,0.2,0,0.3,0c0.1,0,0.2-0.1,0.3-0.1l0.8,0.2h0.2l0.5-0.1h0.8l0.9-0.1c0.1,0,0.2,0.1,0.3,0.2l0.2-0.1c0.1-0.1,0.3-0.2,0.4-0.2
	h0.2h0.2v0.2l-0.3,0.2L186.7,5c-0.1,0.1-0.1,0.1-0.2,0.1l0,0L185.7,5h-0.9l-0.5-0.1L182.5,5h-0.3c-0.1-0.1-0.2-0.2-0.3-0.2h-0.1
	L181.3,5l-1.4-0.2l-0.7,0.2L178.8,5l-0.4,0.2l-1.2-0.1l-0.1,0.2v0.6L177,6.5l0.1,0.2l0.1,0.2l-0.1,0.5c0.1,0.1,0.1,0.3,0.2,0.4v0.4
	l0.1,1l0,0c0,0.2-0.1,0.3-0.2,0.4c0.2,0.2,0.3,0.4,0.3,0.6c0,0,0,0.1,0,0.1l-0.3,0.6l0.3,0.6l0.1,2.1l0.3,0.1l1.4,0.5l0.5-0.1
	c0.2,0,0.3,0.1,0.5,0.2c0.1-0.1,0.2-0.2,0.3-0.2l0,0l1,0.2l0.6-0.1l0.5,0.1l1.3-0.1l0.4,0.1h0.6l0.2,0.1l-0.1-0.2h0.2h1l0.2-0.1
	l1.3-0.2l0.2-0.1h0.2C188.5,13.7,188.6,13.7,188.6,13.7z"/>
<path class="st0" d="M202.5,5.1c-0.1,0.1-0.1,0.2-0.2,0.2c0.1,0.1,0.1,0.3,0.1,0.4v0.9v0.7l-0.1,0.5v0.7l-0.1,1l0.1,0.6l-0.1,0.4v1
	v0.3l-0.1-0.1c-0.1,0.1-0.2,0.2-0.2,0.3s0.1,0.3,0.3,0.4c0,0.2,0.1,0.4,0.1,0.6c0,0.3-0.1,0.6-0.2,0.8c-0.2,0.4-0.4,0.7-0.6,1.1
	l-0.1,0.2l-0.4,0.2l-0.1-0.2l-0.5-0.8l-0.6-0.8l-0.5-0.8l-0.2-0.2v-0.2c0-0.2-0.1-0.4-0.4-0.6c-0.2-0.2-0.4-0.3-0.6-0.5l-0.6-1.1
	l-0.3-0.4L197.1,9c-0.1-0.3-0.4-0.5-0.7-0.4l-0.1-0.3l-0.6-1l-0.2-0.6l-0.4-0.4l-0.1,0.1l-0.2-0.1c-0.3-0.6-0.8-1.2-1.4-1.6
	c0-0.1,0.1-0.3,0.1-0.4c0-0.2-0.1-0.3-0.2-0.3l-0.2,0.1C193.1,4.1,193,4,192.8,4l-0.2,0.1l0.2,0.5l-0.3,0.1l0.1,0.2l-0.1,0.5v0.9
	l-0.1,0.3l-0.2,0.1v0.3l0.2,0.6l0,0l0,0c0,0.2-0.1,0.4-0.3,0.5l0.1,0.4l0.1,0.2v3.2l0.1,0.9l0,0v0.1l-0.1,0.6v0.1
	c0.1,0.1,0.2,0.2,0.2,0.2c-0.1,0.3-0.3,0.6-0.5,0.9L192,15h-0.2c-0.1,0.2-0.2,0.2-0.3,0.2l0,0h-0.2H191v-0.3c0-0.1,0-0.3,0.1-0.4
	l0.2-0.3l0.2-0.3l-0.2-0.2l0.1-0.2l0.1-0.3c0-0.1-0.1-0.2-0.1-0.4l0,0l0,0l0.2-0.6l-0.1-1.2c0.1-0.1,0.2-0.2,0.3-0.2v-0.1l-0.2-0.3
	v-0.2V9.9l0.1-0.6l0,0l0,0l-0.1-0.5l0.1-0.6V7.8c0-0.1,0.1-0.3,0.3-0.4V7.1l-0.1-0.4c0-0.1,0-0.2,0.1-0.3c-0.1-0.1-0.2-0.2-0.2-0.3
	c0-0.2,0.1-0.5,0.1-0.7l0-0.2V5l-0.1-0.7c0-0.1,0.1-0.2,0.1-0.3V3.6c0-0.3,0-0.6-0.1-0.8l-0.5-0.6l0.1-0.2l0.3-0.2
	c0.1-0.1,0.3-0.2,0.4-0.2c0.1-0.1,0.1-0.2,0.2-0.3l0.2-0.1l0.5-0.6c0,0,0.1,0,0.1,0c0.2,0,0.3,0.1,0.4,0.3l0.5,0.9l0.2,0.2l0.2,0.3
	L194,2.5c0.3,0.3,0.5,0.6,0.7,1l0.6,0.9c0.1,0.1,0.1,0.2,0.2,0.4c0,0.1,0,0.2-0.1,0.2l0.4,0.2l-0.1,0.2l0.2,0.2l0.4,0.6l0.3,0.3
	l0.1,0.4l1,1l-0.2,0.1c0,0.1,0.1,0.2,0.1,0.3c0.1,0.1,0.2,0.1,0.3,0.1l0.5,0.7h-0.1l0.3,0.2c0.1,0.1,0.3,0.2,0.4,0.3
	c0.1,0.1,0.1,0.3,0.1,0.4l0.1,0.1v0.1c0,0.2,0.1,0.3,0.1,0.5l0.2,0.2c0.2,0.1,0.3,0.1,0.5,0.2l0.5,0.7l0.2,0.1l0.3,0.3l0.1-0.2v-1.3
	l0.2-0.5c-0.1-0.1-0.2-0.3-0.2-0.4c0,0,0-0.1,0-0.1l0.1-0.4l0.1-1.5l0.2-0.3l-0.1-0.3l0.1-0.5l0,0c0-0.1-0.1-0.2-0.3-0.2l-0.1-2.8
	c0.1,0,0.1,0,0.2-0.1c0-0.1,0.1-0.2,0.1-0.3L201.2,3V2.7c0-0.2-0.1-0.4-0.1-0.6c-0.1-0.1-0.2-0.2-0.3-0.2c0-0.1,0-0.2,0-0.3
	c0-0.3,0.3-0.5,0.9-0.6c0.1-0.1,0.2-0.2,0.3-0.3c0.2-0.1,0.3-0.2,0.5-0.3c0.1,0.1,0.1,0.3,0.1,0.4v0.3l0.1,0.2v0.4v0.9
	c0,0.2,0,0.3-0.1,0.5l-0.1,0.4l0,0l0.2,0.7v0.5L202.5,5.1z"/>
<path class="st0" d="M217.8,9.9c0,0.2,0,0.4-0.1,0.6h-0.4l-0.1,0.1v0.3c0.2,0.1,0.2,0.2,0.2,0.4c0,0.2,0,0.4-0.1,0.6l-0.6,0.8
	l-0.2,0.3l-0.4,0.4l-0.4,0.4l-0.2,0.1l-1.6,1.1l-0.8,0.3c-0.1,0.1-0.3,0.1-0.5,0.1l-0.2,0c-0.2,0.1-0.5,0.2-0.7,0.2h-0.5h-1
	l-0.3-0.2h-1.3l-0.7-0.4l-0.3,0.1l0.1,0.1h-0.3H207l-0.8-0.6l-0.6-0.1L205,14c-0.3-0.2-0.4-0.3-0.4-0.4c0-0.2,0.1-0.4,0.2-0.5
	c0.1-0.2,0.3-0.4,0.4-0.6c0.2-0.2,0.4-0.4,0.7-0.4l0.2,0.8c0.1,0,0.2,0.1,0.3,0.2c0.1,0.1,0.1,0.2,0.1,0.3h0.2l0.2,0.1l0.2,0.3
	l0.7,0.2l0.7,0.3l1.5,0.3c0.1,0.1,0.3,0.2,0.4,0.2c0.1,0,0.2-0.1,0.2-0.2h0.1l1.3,0.1l0.4-0.2l0.2,0.1l0.4-0.1l0.5-0.2
	c0.2-0.1,0.4-0.2,0.6-0.3l0.3-0.4l0.4-0.4c0.1-0.2,0.1-0.3,0.2-0.5c0.3,0,0.4-0.1,0.4-0.3v-0.2V12l0.2-0.2l0.3-1h0.1v-0.6l-0.2-0.6
	l-0.1-0.2h-0.3l-0.8-0.5l-1-0.4l-0.2-0.2L213.2,8l-0.2,0.1l-0.1,0.1l-1.5-0.1l-0.3-0.4l-0.3,0.3l-0.2-0.1l-0.7-0.4
	c-0.3-0.1-0.6-0.1-0.9-0.2c-0.2-0.1-0.4-0.1-0.6-0.3V7L208,6.8h-0.2c-0.2-0.1-0.4-0.3-0.5-0.5c-0.1-0.2-0.2-0.4-0.3-0.7h0.1
	l-0.2-0.2V5.1V4.8V4.7l0.1-0.4l0.1-0.2l0.1-0.3l0.4-0.3c0.2-0.2,0.2-0.4,0.2-0.6l0.2-0.2l1.2-0.9l0.5-0.3l0.8-0.4l1.1-0.4l0.3-0.1
	h0.3l0.7-0.1l0.3-0.1l1.1,0.1h0.5l0.3,0.1l0.5,0.1c0.4,0.1,0.6,0.2,0.6,0.3c0,0,0,0.1,0,0.2l-0.2,0.1l-0.3,0.2
	c-0.3,0.2-0.6,0.3-0.9,0.3l-0.2-0.1L214,1.3h-0.3l-0.9-0.2h-0.5h-0.6l-1.1,0.5L209.9,2l-0.5,0.4l-0.2,0.3l-0.5,0.8l-0.4,0.3
	l-0.1,0.3l0.3,0.2c0,0.1,0,0.2,0,0.2c0,0.1,0.1,0.2,0.1,0.3L208.2,5l0.1,0.2l0.2,0.1l0.4,0.1l0.4,0.3l0.9,0.4l0.2,0.2l0.8-0.1
	l0.7,0.1v0.1h0.3h0.4c0,0,0.1,0,0.1,0l0.6,0.1l0.3,0.1c0,0.3,0.1,0.5,0.3,0.5l0,0l0,0l0.5-0.3h0.6h0.4c0.2,0,0.5,0.1,0.7,0.3
	l0.6,0.5h0.1h0.1l0,0c0.1,0,0.3,0.2,0.8,0.8l0.2,0.2v0.3L217.8,9.9z"/>
</svg>
